<svg width="18" height="14" viewBox="0 0 18 14" version="1.1" xmlns="http://www.w3.org/2000/svg" xmlns:xlink="http://www.w3.org/1999/xlink">
<title>arrow-left</title>
<desc>Created using Figma</desc>
<g id="Canvas" transform="translate(-1025 1823)">
<g id="arrow-left">
<g id="Page 1">
<g id="feather icon">
<g id="arrow left">
<g id="Shape">
<use xlink:href="#path0_stroke" transform="translate(1026 -1816)" fill="#3A4047"/>
</g>
<g id="Shape">
<use xlink:href="#path1_stroke" transform="translate(1026 -1822)" fill="#3A4047"/>
</g>
</g>
</g>
</g>
</g>
</g>
<defs>
<path id="path0_stroke" d="M 16 1C 16.5523 1 17 0.552285 17 0C 17 -0.552285 16.5523 -1 16 -1L 16 1ZM 0 -1C -0.552285 -1 -1 -0.552285 -1 0C -1 0.552285 -0.552285 1 0 1L 0 -1ZM 16 -1L 0 -1L 0 1L 16 1L 16 -1Z"/>
<path id="path1_stroke" d="M 5.29289 12.7071C 5.68342 13.0976 6.31658 13.0976 6.70711 12.7071C 7.09763 12.3166 7.09763 11.6834 6.70711 11.2929L 5.29289 12.7071ZM 0 6L -0.707107 5.29289C -1.09763 5.68342 -1.09763 6.31658 -0.707107 6.70711L 0 6ZM 6.70711 0.707107C 7.09763 0.316583 7.09763 -0.316583 6.70711 -0.707107C 6.31658 -1.09763 5.68342 -1.09763 5.29289 -0.707107L 6.70711 0.707107ZM 6.70711 11.2929L 0.707107 5.29289L -0.707107 6.70711L 5.29289 12.7071L 6.70711 11.2929ZM 0.707107 6.70711L 6.70711 0.707107L 5.29289 -0.707107L -0.707107 5.29289L 0.707107 6.70711Z"/>
</defs>
</svg>
