<svg width="22" height="22" viewBox="0 0 22 22" version="1.1" xmlns="http://www.w3.org/2000/svg" xmlns:xlink="http://www.w3.org/1999/xlink">
<title>bell</title>
<desc>Created using Figma</desc>
<g id="Canvas" transform="translate(-1327 1826)">
<g id="bell">
<g id="Page 1">
<g id="feather icon">
<g id="bell">
<g id="Shape">
<use xlink:href="#path0_stroke" transform="translate(1328 -1825)" fill="#3A4047"/>
</g>
</g>
</g>
</g>
</g>
</g>
<defs>
<path id="path0_stroke" d="M 20 16C 20.5523 16 21 15.5523 21 15C 21 14.4477 20.5523 14 20 14L 20 16ZM 0 14C -0.552285 14 -1 14.4477 -1 15C -1 15.5523 -0.552285 16 0 16L 0 14ZM 3 7L 2 7L 3 7ZM 17 7L 18 7L 17 7ZM 11.73 19L 12.595 19.5018C 12.7744 19.1924 12.775 18.8108 12.5965 18.5009C 12.418 18.191 12.0876 18 11.73 18L 11.73 19ZM 8.27 19L 8.27 18C 7.91237 18 7.58196 18.191 7.40346 18.5009C 7.22497 18.8108 7.22555 19.1924 7.405 19.5018L 8.27 19ZM 20 14L 0 14L 0 16L 20 16L 20 14ZM 0 16C 2.20914 16 4 14.2091 4 12L 2 12C 2 13.1046 1.10457 14 0 14L 0 16ZM 4 12L 4 7L 2 7L 2 12L 4 12ZM 4 7C 4 3.68629 6.68629 1 10 1L 10 -1C 5.58172 -1 2 2.58172 2 7L 4 7ZM 10 1C 13.3137 1 16 3.68629 16 7L 18 7C 18 2.58172 14.4183 -1 10 -1L 10 1ZM 16 7L 16 12L 18 12L 18 7L 16 7ZM 16 12C 16 14.2091 17.7909 16 20 16L 20 14C 18.8954 14 18 13.1046 18 12L 16 12ZM 10.865 18.4982C 10.6861 18.8066 10.3565 18.9965 10 18.9965L 10 20.9965C 11.0696 20.9965 12.0583 20.427 12.595 19.5018L 10.865 18.4982ZM 10 18.9965C 9.64347 18.9965 9.3139 18.8066 9.135 18.4982L 7.405 19.5018C 7.9417 20.427 8.9304 20.9965 10 20.9965L 10 18.9965ZM 8.27 20L 11.73 20L 11.73 18L 8.27 18L 8.27 20Z"/>
</defs>
</svg>
