<svg width="24" height="20" viewBox="0 0 24 20" version="1.1" xmlns="http://www.w3.org/2000/svg" xmlns:xlink="http://www.w3.org/1999/xlink">
<title>camera</title>
<desc>Created using Figma</desc>
<g id="Canvas" transform="translate(-1064 1710)">
<g id="camera">
<g id="Page 1">
<g id="feather icon">
<g id="camera">
<g id="Shape">
<use xlink:href="#path0_stroke" transform="translate(1065 -1709)" fill="#3A4047"/>
</g>
<g id="Oval">
<use xlink:href="#path1_stroke" transform="translate(1072 -1703)" fill="#3A4047"/>
</g>
</g>
</g>
</g>
</g>
</g>
<defs>
<path id="path0_stroke" d="M 0 16L -1 16L 0 16ZM 6 3L 6 4C 6.33435 4 6.64658 3.8329 6.83205 3.5547L 6 3ZM 8 0L 8 -1C 7.66565 -1 7.35342 -0.832899 7.16795 -0.5547L 8 0ZM 14 0L 14.8321 -0.5547C 14.6466 -0.832899 14.3344 -1 14 -1L 14 0ZM 16 3L 15.1679 3.5547C 15.3534 3.8329 15.6656 4 16 4L 16 3ZM 21 16C 21 16.5523 20.5523 17 20 17L 20 19C 21.6569 19 23 17.6569 23 16L 21 16ZM 20 17L 2 17L 2 19L 20 19L 20 17ZM 2 17C 1.44772 17 1 16.5523 1 16L -1 16C -1 17.6569 0.343146 19 2 19L 2 17ZM 1 16L 1 5L -1 5L -1 16L 1 16ZM 1 5C 1 4.44772 1.44772 4 2 4L 2 2C 0.343146 2 -1 3.34315 -1 5L 1 5ZM 2 4L 6 4L 6 2L 2 2L 2 4ZM 6.83205 3.5547L 8.83205 0.5547L 7.16795 -0.5547L 5.16795 2.4453L 6.83205 3.5547ZM 8 1L 14 1L 14 -1L 8 -1L 8 1ZM 13.1679 0.5547L 15.1679 3.5547L 16.8321 2.4453L 14.8321 -0.5547L 13.1679 0.5547ZM 16 4L 20 4L 20 2L 16 2L 16 4ZM 20 4C 20.5523 4 21 4.44772 21 5L 23 5C 23 3.34315 21.6569 2 20 2L 20 4ZM 21 5L 21 16L 23 16L 23 5L 21 5Z"/>
<path id="path1_stroke" d="M 7 4C 7 5.65685 5.65685 7 4 7L 4 9C 6.76142 9 9 6.76142 9 4L 7 4ZM 4 7C 2.34315 7 1 5.65685 1 4L -1 4C -1 6.76142 1.23858 9 4 9L 4 7ZM 1 4C 1 2.34315 2.34315 1 4 1L 4 -1C 1.23858 -1 -1 1.23858 -1 4L 1 4ZM 4 1C 5.65685 1 7 2.34315 7 4L 9 4C 9 1.23858 6.76142 -1 4 -1L 4 1Z"/>
</defs>
</svg>
