<svg width="23" height="23" viewBox="0 0 23 23" version="1.1" xmlns="http://www.w3.org/2000/svg" xmlns:xlink="http://www.w3.org/1999/xlink">
<title>check-circle</title>
<desc>Created using Figma</desc>
<g id="Canvas" transform="translate(-1209 1769)">
<g id="check-circle">
<g id="Page 1">
<g id="feather icon">
<g id="check circle">
<g id="Shape">
<use xlink:href="#path0_stroke" transform="translate(1210 -1768)" fill="#3A4047"/>
</g>
<g id="Shape">
<use xlink:href="#path1_stroke" transform="translate(1217 -1766.99)" fill="#3A4047"/>
</g>
</g>
</g>
</g>
</g>
</g>
<defs>
<path id="path0_stroke" d="M 21.0001 9.07623C 21.0001 8.52395 20.5523 8.07623 20.0001 8.07623C 19.4478 8.07623 19.0001 8.52395 19.0001 9.07623L 21.0001 9.07623ZM 20.0001 10.0062L 21.0001 10.0068L 21.0001 10.0062L 20.0001 10.0062ZM 13.6631 1.77966C 14.1675 2.00444 14.7587 1.77771 14.9835 1.27323C 15.2083 0.768762 14.9815 0.177586 14.4771 -0.0471933L 13.6631 1.77966ZM 19.0001 9.07623L 19.0001 10.0062L 21.0001 10.0062L 21.0001 9.07623L 19.0001 9.07623ZM 19.0001 10.0057C 18.9978 13.9915 16.3741 17.5011 12.5519 18.6312L 13.1189 20.5491C 17.7906 19.1678 20.9973 14.8784 21.0001 10.0068L 19.0001 10.0057ZM 12.5519 18.6312C 8.72963 19.7613 4.61931 18.2427 2.44992 14.899L 0.772107 15.9876C 3.42359 20.0744 8.44731 21.9304 13.1189 20.5491L 12.5519 18.6312ZM 2.44992 14.899C 0.280522 11.5553 0.568834 7.18294 3.1585 4.15303L 1.63816 2.85359C -1.52699 6.55681 -1.87938 11.9008 0.772107 15.9876L 2.44992 14.899ZM 3.1585 4.15303C 5.74817 1.12312 10.0223 0.157436 13.6631 1.77966L 14.4771 -0.0471933C 10.0272 -2.02992 4.80331 -0.849638 1.63816 2.85359L 3.1585 4.15303Z"/>
<path id="path1_stroke" d="M 14.7071 0.707107C 15.0976 0.316583 15.0976 -0.316583 14.7071 -0.707107C 14.3166 -1.09763 13.6834 -1.09763 13.2929 -0.707107L 14.7071 0.707107ZM 3 11L 2.29289 11.7071C 2.68342 12.0976 3.31658 12.0976 3.70711 11.7071L 3 11ZM 0.707107 7.29289C 0.316583 6.90237 -0.316583 6.90237 -0.707107 7.29289C -1.09763 7.68342 -1.09763 8.31658 -0.707107 8.70711L 0.707107 7.29289ZM 13.2929 -0.707107L 2.29289 10.2929L 3.70711 11.7071L 14.7071 0.707107L 13.2929 -0.707107ZM 3.70711 10.2929L 0.707107 7.29289L -0.707107 8.70711L 2.29289 11.7071L 3.70711 10.2929Z"/>
</defs>
</svg>
