<svg width="8" height="14" viewBox="0 0 8 14" version="1.1" xmlns="http://www.w3.org/2000/svg" xmlns:xlink="http://www.w3.org/1999/xlink">
<title>chevron-right</title>
<desc>Created using Figma</desc>
<g id="Canvas" transform="translate(-1288 1823)">
<g id="chevron-right">
<g id="Page 1">
<g id="feather icon">
<g id="chevron right">
<g id="Shape">
<use xlink:href="#path0_stroke" transform="translate(1289 -1822)" fill="#3A4047"/>
</g>
</g>
</g>
</g>
</g>
</g>
<defs>
<path id="path0_stroke" d="M -0.707107 11.2929C -1.09763 11.6834 -1.09763 12.3166 -0.707107 12.7071C -0.316583 13.0976 0.316583 13.0976 0.707107 12.7071L -0.707107 11.2929ZM 6 6L 6.70711 6.70711C 7.09763 6.31658 7.09763 5.68342 6.70711 5.29289L 6 6ZM 0.707107 -0.707107C 0.316583 -1.09763 -0.316583 -1.09763 -0.707107 -0.707107C -1.09763 -0.316583 -1.09763 0.316583 -0.707107 0.707107L 0.707107 -0.707107ZM 0.707107 12.7071L 6.70711 6.70711L 5.29289 5.29289L -0.707107 11.2929L 0.707107 12.7071ZM 6.70711 5.29289L 0.707107 -0.707107L -0.707107 0.707107L 5.29289 6.70711L 6.70711 5.29289Z"/>
</defs>
</svg>
