<svg width="22" height="22" viewBox="0 0 22 22" version="1.1" xmlns="http://www.w3.org/2000/svg" xmlns:xlink="http://www.w3.org/1999/xlink">
<title>clock</title>
<desc>Created using Figma</desc>
<g id="Canvas" transform="translate(-1179 1653)">
<g id="clock">
<g id="Page 1">
<g id="feather icon">
<g id="clock">
<g id="Oval">
<use xlink:href="#path0_stroke" transform="translate(1180 -1652)" fill="#3A4047"/>
</g>
<g id="Shape">
<use xlink:href="#path1_stroke" transform="translate(1190 -1648)" fill="#3A4047"/>
</g>
</g>
</g>
</g>
</g>
</g>
<defs>
<path id="path0_stroke" d="M 19 10C 19 14.9706 14.9706 19 10 19L 10 21C 16.0751 21 21 16.0751 21 10L 19 10ZM 10 19C 5.02944 19 1 14.9706 1 10L -1 10C -1 16.0751 3.92487 21 10 21L 10 19ZM 1 10C 1 5.02944 5.02944 1 10 1L 10 -1C 3.92487 -1 -1 3.92487 -1 10L 1 10ZM 10 1C 14.9706 1 19 5.02944 19 10L 21 10C 21 3.92487 16.0751 -1 10 -1L 10 1Z"/>
<path id="path1_stroke" d="M 1 0C 1 -0.552285 0.552285 -1 0 -1C -0.552285 -1 -1 -0.552285 -1 0L 1 0ZM 0 6L -1 6C -1 6.26522 -0.894643 6.51957 -0.707107 6.70711L 0 6ZM 2.29289 9.70711C 2.68342 10.0976 3.31658 10.0976 3.70711 9.70711C 4.09763 9.31658 4.09763 8.68342 3.70711 8.29289L 2.29289 9.70711ZM -1 0L -1 6L 1 6L 1 0L -1 0ZM -0.707107 6.70711L 2.29289 9.70711L 3.70711 8.29289L 0.707107 5.29289L -0.707107 6.70711Z"/>
</defs>
</svg>
