<svg width="18" height="18" viewBox="0 0 18 18" version="1.1" xmlns="http://www.w3.org/2000/svg" xmlns:xlink="http://www.w3.org/1999/xlink">
<title>corner-down-left</title>
<desc>Created using Figma</desc>
<g id="Canvas" transform="translate(-1155 1767)">
<g id="corner-down-left">
<g id="Page 1">
<g id="feather icon">
<g id="corner down left">
<g id="Shape">
<use xlink:href="#path0_stroke" transform="translate(1156 -1760)" fill="#3A4047"/>
</g>
<g id="Shape">
<use xlink:href="#path1_stroke" transform="translate(1156 -1766)" fill="#3A4047"/>
</g>
</g>
</g>
</g>
</g>
</g>
<defs>
<path id="path0_stroke" d="M 5.70711 0.707107C 6.09763 0.316583 6.09763 -0.316583 5.70711 -0.707107C 5.31658 -1.09763 4.68342 -1.09763 4.29289 -0.707107L 5.70711 0.707107ZM 0 5L -0.707107 4.29289C -1.09763 4.68342 -1.09763 5.31658 -0.707107 5.70711L 0 5ZM 4.29289 10.7071C 4.68342 11.0976 5.31658 11.0976 5.70711 10.7071C 6.09763 10.3166 6.09763 9.68342 5.70711 9.29289L 4.29289 10.7071ZM 4.29289 -0.707107L -0.707107 4.29289L 0.707107 5.70711L 5.70711 0.707107L 4.29289 -0.707107ZM -0.707107 5.70711L 4.29289 10.7071L 5.70711 9.29289L 0.707107 4.29289L -0.707107 5.70711Z"/>
<path id="path1_stroke" d="M 17 0C 17 -0.552285 16.5523 -1 16 -1C 15.4477 -1 15 -0.552285 15 0L 17 0ZM 0 10C -0.552285 10 -1 10.4477 -1 11C -1 11.5523 -0.552285 12 0 12L 0 10ZM 15 0L 15 7L 17 7L 17 0L 15 0ZM 15 7C 15 8.65685 13.6569 10 12 10L 12 12C 14.7614 12 17 9.76142 17 7L 15 7ZM 12 10L 0 10L 0 12L 12 12L 12 10Z"/>
</defs>
</svg>
