<svg width="20" height="22" viewBox="0 0 20 22" version="1.1" xmlns="http://www.w3.org/2000/svg" xmlns:xlink="http://www.w3.org/1999/xlink">
<title>download</title>
<desc>Created using Figma</desc>
<g id="Canvas" transform="translate(-1129 1653)">
<g id="download">
<g id="Page 1">
<g id="feather icon">
<g id="download">
<g id="Shape">
<use xlink:href="#path0_stroke" transform="translate(1130 -1637)" fill="#3A4047"/>
</g>
<g id="Shape">
<use xlink:href="#path1_stroke" transform="translate(1135 -1642)" fill="#3A4047"/>
</g>
<g id="Shape">
<use xlink:href="#path2_stroke" transform="translate(1139 -1652)" fill="#3A4047"/>
</g>
</g>
</g>
</g>
</g>
</g>
<defs>
<path id="path0_stroke" d="M 1 0C 1 -0.552285 0.552285 -1 0 -1C -0.552285 -1 -1 -0.552285 -1 0L 1 0ZM 19 0C 19 -0.552285 18.5523 -1 18 -1C 17.4477 -1 17 -0.552285 17 0L 19 0ZM -1 0L -1 3L 1 3L 1 0L -1 0ZM -1 3C -1 4.65685 0.343146 6 2 6L 2 4C 1.44772 4 1 3.55228 1 3L -1 3ZM 2 6L 16 6L 16 4L 2 4L 2 6ZM 16 6C 17.6569 6 19 4.65685 19 3L 17 3C 17 3.55228 16.5523 4 16 4L 16 6ZM 19 3L 19 0L 17 0L 17 3L 19 3Z"/>
<path id="path1_stroke" d="M 0.707107 -0.707107C 0.316583 -1.09763 -0.316583 -1.09763 -0.707107 -0.707107C -1.09763 -0.316583 -1.09763 0.316583 -0.707107 0.707107L 0.707107 -0.707107ZM 4 4L 3.29289 4.70711C 3.68342 5.09763 4.31658 5.09763 4.70711 4.70711L 4 4ZM 8.70711 0.707107C 9.09763 0.316583 9.09763 -0.316583 8.70711 -0.707107C 8.31658 -1.09763 7.68342 -1.09763 7.29289 -0.707107L 8.70711 0.707107ZM -0.707107 0.707107L 3.29289 4.70711L 4.70711 3.29289L 0.707107 -0.707107L -0.707107 0.707107ZM 4.70711 4.70711L 8.70711 0.707107L 7.29289 -0.707107L 3.29289 3.29289L 4.70711 4.70711Z"/>
<path id="path2_stroke" d="M 1 0C 1 -0.552285 0.552285 -1 0 -1C -0.552285 -1 -1 -0.552285 -1 0L 1 0ZM -1 14C -1 14.5523 -0.552285 15 0 15C 0.552285 15 1 14.5523 1 14L -1 14ZM -1 0L -1 14L 1 14L 1 0L -1 0Z"/>
</defs>
</svg>
