<svg width="22" height="22" viewBox="0 0 22 22" version="1.1" xmlns="http://www.w3.org/2000/svg" xmlns:xlink="http://www.w3.org/1999/xlink">
<title>edit</title>
<desc>Created using Figma</desc>
<g id="Canvas" transform="translate(-1267 1769)">
<g id="edit">
<g id="Page 1">
<g id="feather icon">
<g id="edit">
<g id="Shape">
<use xlink:href="#path0_stroke" transform="translate(1268 -1766)" fill="#3A4047"/>
</g>
<g id="Shape">
<use xlink:href="#path1_stroke" transform="translate(1274 -1768)" fill="#3A4047"/>
</g>
</g>
</g>
</g>
</g>
</g>
<defs>
<path id="path0_stroke" d="M 19 10.66C 19 10.1077 18.5523 9.66 18 9.66C 17.4477 9.66 17 10.1077 17 10.66L 19 10.66ZM 7.34 1C 7.89228 1 8.34 0.552285 8.34 0C 8.34 -0.552285 7.89228 -1 7.34 -1L 7.34 1ZM 17 10.66L 17 16L 19 16L 19 10.66L 17 10.66ZM 17 16C 17 16.5523 16.5523 17 16 17L 16 19C 17.6569 19 19 17.6569 19 16L 17 16ZM 16 17L 2 17L 2 19L 16 19L 16 17ZM 2 17C 1.44772 17 1 16.5523 1 16L -1 16C -1 17.6569 0.343146 19 2 19L 2 17ZM 1 16L 1 2L -1 2L -1 16L 1 16ZM 1 2C 1 1.44772 1.44772 1 2 1L 2 -1C 0.343146 -1 -1 0.343146 -1 2L 1 2ZM 2 1L 7.34 1L 7.34 -1L 2 -1L 2 1Z"/>
<path id="path1_stroke" d="M 10 0L 10.7071 -0.707107C 10.3166 -1.09763 9.68342 -1.09763 9.29289 -0.707107L 10 0ZM 14 4L 14.7071 4.70711C 15.0976 4.31658 15.0976 3.68342 14.7071 3.29289L 14 4ZM 4 14L 4 15C 4.26522 15 4.51957 14.8946 4.70711 14.7071L 4 14ZM 0 14L -1 14C -1 14.5523 -0.552285 15 2.22045e-16 15L 0 14ZM 0 10L -0.707107 9.29289C -0.894643 9.48043 -1 9.73478 -1 10L 0 10ZM 9.29289 0.707107L 13.2929 4.70711L 14.7071 3.29289L 10.7071 -0.707107L 9.29289 0.707107ZM 13.2929 3.29289L 3.29289 13.2929L 4.70711 14.7071L 14.7071 4.70711L 13.2929 3.29289ZM 4 13L 0 13L 0 15L 4 15L 4 13ZM 1 14L 1 10L -1 10L -1 14L 1 14ZM 0.707107 10.7071L 10.7071 0.707107L 9.29289 -0.707107L -0.707107 9.29289L 0.707107 10.7071Z"/>
</defs>
</svg>
