<svg width="24" height="18" viewBox="0 0 24 18" version="1.1" xmlns="http://www.w3.org/2000/svg" xmlns:xlink="http://www.w3.org/1999/xlink">
<title>eye</title>
<desc>Created using Figma</desc>
<g id="Canvas" transform="translate(-1324 1709)">
<g id="eye">
<g id="Page 1">
<g id="feather icon">
<g id="eye">
<g id="Shape">
<use xlink:href="#path0_stroke" transform="translate(1325 -1708)" fill="#3A4047"/>
</g>
<g id="Oval">
<use xlink:href="#path1_stroke" transform="translate(1333 -1703)" fill="#3A4047"/>
</g>
</g>
</g>
</g>
</g>
</g>
<defs>
<path id="path0_stroke" d="M 0 8L -0.894427 7.55279C -1.03519 7.83431 -1.03519 8.16569 -0.894427 8.44721L 0 8ZM 22 8L 22.8944 8.44721C 23.0352 8.16569 23.0352 7.83431 22.8944 7.55279L 22 8ZM 0 8C 0.894427 8.44721 0.894289 8.44749 0.894167 8.44773C 0.894146 8.44778 0.894038 8.44799 0.893996 8.44807C 0.893977 8.44811 0.893888 8.44829 0.893925 8.44822C 0.894205 8.44766 0.894308 8.44746 0.894862 8.44636C 0.896386 8.44336 0.898016 8.44015 0.901039 8.43428C 0.907933 8.42086 0.91686 8.40365 0.930508 8.37787C 0.959577 8.32292 0.999839 8.24827 1.05712 8.14651C 1.17553 7.93593 1.3435 7.64965 1.57441 7.29253C 2.04503 6.56325 2.70991 5.63513 3.60454 4.68394C 5.39552 2.77356 7.89951 1 11 1L 11 -1C 7.10049 -1 4.10448 1.22644 2.14546 3.31606C 1.16509 4.36487 0.392467 5.43675 -0.105664 6.20747C -0.359128 6.60035 -0.558338 6.93907 -0.686029 7.16599C -0.751792 7.28298 -0.804304 7.3802 -0.837247 7.44244C -0.854604 7.47526 -0.868993 7.50297 -0.877662 7.51982C -0.882422 7.52909 -0.886635 7.53736 -0.88901 7.54204C -0.890405 7.54479 -0.891765 7.54749 -0.892461 7.54887C -0.892912 7.54977 -0.893405 7.55075 -0.89363 7.55119C -0.893794 7.55152 -0.893993 7.55192 -0.894075 7.55208C -0.894259 7.55245 -0.894427 7.55279 0 8ZM 11 1C 14.1005 1 16.6045 2.77356 18.3955 4.68394C 19.2901 5.63513 19.955 6.56325 20.4256 7.29253C 20.6565 7.64965 20.8245 7.93593 20.9429 8.14651C 21.0002 8.24827 21.0404 8.32292 21.0695 8.37787C 21.0831 8.40365 21.0921 8.42086 21.099 8.43428C 21.102 8.44015 21.1036 8.44336 21.1051 8.44636C 21.1057 8.44746 21.1058 8.44766 21.1061 8.44822C 21.1061 8.44829 21.106 8.44811 21.106 8.44807C 21.106 8.44799 21.1059 8.44778 21.1058 8.44773C 21.1057 8.44749 21.1056 8.44721 22 8C 22.8944 7.55279 22.8943 7.55245 22.8941 7.55208C 22.894 7.55192 22.8938 7.55152 22.8936 7.55119C 22.8934 7.55075 22.8929 7.54977 22.8925 7.54887C 22.8918 7.54749 22.8904 7.54479 22.889 7.54204C 22.8866 7.53736 22.8824 7.52909 22.8777 7.51982C 22.869 7.50297 22.8546 7.47526 22.8372 7.44244C 22.8043 7.3802 22.7518 7.28298 22.686 7.16599C 22.5583 6.93907 22.3591 6.60035 22.1057 6.20747C 21.6075 5.43675 20.8349 4.36487 19.8545 3.31606C 17.8955 1.22644 14.8995 -1 11 -1L 11 1ZM 22 8C 21.1056 7.55279 21.1057 7.55251 21.1058 7.55227C 21.1059 7.55222 21.106 7.55201 21.106 7.55193C 21.106 7.55189 21.1061 7.55171 21.1061 7.55178C 21.1058 7.55234 21.1057 7.55254 21.1051 7.55364C 21.1036 7.55664 21.102 7.55985 21.099 7.56572C 21.0921 7.57914 21.0831 7.59635 21.0695 7.62213C 21.0404 7.67708 21.0002 7.75173 20.9429 7.85349C 20.8245 8.06407 20.6565 8.35035 20.4256 8.70747C 19.955 9.43674 19.2901 10.3649 18.3955 11.3161C 16.6045 13.2264 14.1005 15 11 15L 11 17C 14.8995 17 17.8955 14.7736 19.8545 12.6839C 20.8349 11.6351 21.6075 10.5633 22.1057 9.79253C 22.3591 9.39965 22.5583 9.06093 22.686 8.83401C 22.7518 8.71702 22.8043 8.6198 22.8372 8.55756C 22.8546 8.52474 22.869 8.49704 22.8777 8.48018C 22.8824 8.47091 22.8866 8.46264 22.889 8.45796C 22.8904 8.45521 22.8918 8.45251 22.8925 8.45113C 22.8929 8.45023 22.8934 8.44925 22.8936 8.4488C 22.8938 8.44848 22.894 8.44808 22.8941 8.44792C 22.8943 8.44755 22.8944 8.44721 22 8ZM 11 15C 7.89951 15 5.39552 13.2264 3.60454 11.3161C 2.70991 10.3649 2.04503 9.43674 1.57441 8.70747C 1.3435 8.35035 1.17553 8.06407 1.05712 7.85349C 0.999839 7.75173 0.959577 7.67708 0.930508 7.62213C 0.91686 7.59635 0.907933 7.57914 0.901039 7.56572C 0.898016 7.55985 0.896386 7.55664 0.894862 7.55364C 0.894308 7.55254 0.894205 7.55234 0.893925 7.55178C 0.893888 7.55171 0.893977 7.55189 0.893996 7.55193C 0.894038 7.55201 0.894146 7.55222 0.894167 7.55227C 0.894289 7.55251 0.894427 7.55279 0 8C -0.894427 8.44721 -0.894259 8.44755 -0.894075 8.44792C -0.893993 8.44808 -0.893794 8.44848 -0.89363 8.4488C -0.893405 8.44925 -0.892912 8.45023 -0.892461 8.45113C -0.891765 8.45251 -0.890405 8.45521 -0.88901 8.45796C -0.886635 8.46264 -0.882422 8.47091 -0.877662 8.48018C -0.868993 8.49704 -0.854604 8.52474 -0.837247 8.55756C -0.804304 8.6198 -0.751792 8.71702 -0.686029 8.83401C -0.558338 9.06093 -0.359128 9.39965 -0.105664 9.79253C 0.392467 10.5633 1.16509 11.6351 2.14546 12.6839C 4.10448 14.7736 7.10049 17 11 17L 11 15Z"/>
<path id="path1_stroke" d="M 5 3C 5 4.10457 4.10457 5 3 5L 3 7C 5.20914 7 7 5.20914 7 3L 5 3ZM 3 5C 1.89543 5 1 4.10457 1 3L -1 3C -1 5.20914 0.790861 7 3 7L 3 5ZM 1 3C 1 1.89543 1.89543 1 3 1L 3 -1C 0.790861 -1 -1 0.790861 -1 3L 1 3ZM 3 1C 4.10457 1 5 1.89543 5 3L 7 3C 7 0.790861 5.20914 -1 3 -1L 3 1Z"/>
</defs>
</svg>
