<svg width="22" height="20" viewBox="0 0 22 20" version="1.1" xmlns="http://www.w3.org/2000/svg" xmlns:xlink="http://www.w3.org/1999/xlink">
<title>filter</title>
<desc>Created using Figma</desc>
<g id="Canvas" transform="translate(-1275 1652)">
<g id="filter">
<g id="Page 1">
<g id="feather icon">
<g id="filter">
<g id="Shape">
<use xlink:href="#path0_stroke" transform="translate(1276 -1651)" fill="#3A4047"/>
</g>
</g>
</g>
</g>
</g>
</g>
<defs>
<path id="path0_stroke" d="M 20 0L 20.7636 0.645725C 21.015 0.348448 21.071 -0.0677126 20.9071 -0.420877C 20.7433 -0.774041 20.3893 -1 20 -1L 20 0ZM 0 0L 0 -1C -0.389326 -1 -0.743259 -0.774041 -0.907118 -0.420877C -1.07098 -0.0677126 -1.01497 0.348448 -0.76357 0.645725L 0 0ZM 8 9.46L 9 9.46C 9 9.22358 8.91623 8.9948 8.76357 8.81427L 8 9.46ZM 8 16L 7 16C 7 16.3788 7.214 16.725 7.55279 16.8944L 8 16ZM 12 18L 11.5528 18.8944C 11.8628 19.0494 12.2309 19.0329 12.5257 18.8507C 12.8205 18.6684 13 18.3466 13 18L 12 18ZM 12 9.46L 11.2364 8.81427C 11.0838 8.9948 11 9.22358 11 9.46L 12 9.46ZM 20 -1L 0 -1L 0 1L 20 1L 20 -1ZM -0.76357 0.645725L 7.23643 10.1057L 8.76357 8.81427L 0.76357 -0.645725L -0.76357 0.645725ZM 7 9.46L 7 16L 9 16L 9 9.46L 7 9.46ZM 7.55279 16.8944L 11.5528 18.8944L 12.4472 17.1056L 8.44721 15.1056L 7.55279 16.8944ZM 13 18L 13 9.46L 11 9.46L 11 18L 13 18ZM 12.7636 10.1057L 20.7636 0.645725L 19.2364 -0.645725L 11.2364 8.81427L 12.7636 10.1057Z"/>
</defs>
</svg>
