<svg width="23" height="21" viewBox="0 0 23 21" version="1.1" xmlns="http://www.w3.org/2000/svg" xmlns:xlink="http://www.w3.org/1999/xlink">
<title>heart</title>
<desc>Created using Figma</desc>
<g id="Canvas" transform="translate(-1075 1826)">
<g id="heart">
<g id="Page 1">
<g id="feather icon">
<g id="heart">
<g id="Shape">
<use xlink:href="#path0_stroke" transform="translate(1076 -1825)" fill="#3A4047"/>
</g>
</g>
</g>
</g>
</g>
</g>
<defs>
<path id="path0_stroke" d="M 19.2913 1.61183L 18.584 2.31877L 18.5843 2.3191L 19.2913 1.61183ZM 11.5113 1.61183L 12.2184 2.31893L 12.2186 2.31877L 11.5113 1.61183ZM 10.4513 2.67183L 9.74418 3.37893C 10.1347 3.76946 10.7679 3.76946 11.1584 3.37893L 10.4513 2.67183ZM 9.39129 1.61183L 8.68418 2.31893L 9.39129 1.61183ZM 1.61129 9.39183L 0.904184 10.0989L 0.904184 10.0989L 1.61129 9.39183ZM 2.67129 10.4518L 3.3784 9.74472L 3.3784 9.74472L 2.67129 10.4518ZM 10.4513 18.2318L 9.74418 18.9389C 10.1347 19.3295 10.7679 19.3295 11.1584 18.9389L 10.4513 18.2318ZM 19.2913 9.39183L 18.5843 8.68455L 18.5842 8.68472L 19.2913 9.39183ZM 19.9986 0.904885C 18.7795 -0.314762 17.1257 -1 15.4013 -1L 15.4013 1C 16.5951 1 17.74 1.4744 18.584 2.31877L 19.9986 0.904885ZM 15.4013 -1C 13.6769 -1 12.0231 -0.314762 10.804 0.904885L 12.2186 2.31877C 13.0625 1.4744 14.2075 1 15.4013 1L 15.4013 -1ZM 10.8042 0.904719L 9.74418 1.96472L 11.1584 3.37893L 12.2184 2.31893L 10.8042 0.904719ZM 11.1584 1.96472L 10.0984 0.904719L 8.68418 2.31893L 9.74418 3.37893L 11.1584 1.96472ZM 10.0984 0.904719C 7.55949 -1.63419 3.4431 -1.63419 0.904184 0.904719L 2.3184 2.31893C 4.07626 0.561069 6.92632 0.561069 8.68418 2.31893L 10.0984 0.904719ZM 0.904184 0.904719C -1.63473 3.44363 -1.63473 7.56002 0.904184 10.0989L 2.3184 8.68472C 0.560534 6.92686 0.560534 4.0768 2.3184 2.31893L 0.904184 0.904719ZM 0.904184 10.0989L 1.96418 11.1589L 3.3784 9.74472L 2.3184 8.68472L 0.904184 10.0989ZM 1.96418 11.1589L 9.74418 18.9389L 11.1584 17.5247L 3.3784 9.74472L 1.96418 11.1589ZM 11.1584 18.9389L 18.9384 11.1589L 17.5242 9.74472L 9.74418 17.5247L 11.1584 18.9389ZM 18.9384 11.1589L 19.9984 10.0989L 18.5842 8.68472L 17.5242 9.74472L 18.9384 11.1589ZM 19.9982 10.0991C 21.2179 8.88002 21.9031 7.22626 21.9031 5.50183L 19.9031 5.50183C 19.9031 6.69567 19.4287 7.84058 18.5843 8.68455L 19.9982 10.0991ZM 21.9031 5.50183C 21.9031 3.77739 21.2179 2.12363 19.9982 0.904553L 18.5843 2.3191C 19.4287 3.16307 19.9031 4.30799 19.9031 5.50183L 21.9031 5.50183Z"/>
</defs>
</svg>
