<svg width="22" height="22" viewBox="0 0 22 22" version="1.1" xmlns="http://www.w3.org/2000/svg" xmlns:xlink="http://www.w3.org/1999/xlink">
<title>help-circle</title>
<desc>Created using Figma</desc>
<g id="Canvas" transform="translate(-1234 1827)">
<g id="help-circle">
<g id="Page 1">
<g id="feather icon">
<g id="help circle">
<g id="Shape">
<use xlink:href="#path0_stroke" transform="translate(1242.09 -1821)" fill="#3A4047"/>
</g>
<g id="Ellipse">
<use xlink:href="#path1_fill" transform="translate(1245 -1811)" fill="#3A4047"/>
<mask id="mask0_outline_out">
<rect id="mask0_outline_inv" fill="white" x="-1" y="-1" width="3" height="3" transform="translate(1245 -1811)"/>
<use xlink:href="#path1_fill" fill="black" transform="translate(1245 -1811)"/>
</mask>
<g mask="url(#mask0_outline_out)">
<use xlink:href="#path2_stroke_2x" transform="translate(1245 -1811)" fill="#3A4047"/>
</g>
</g>
<g id="Oval">
<use xlink:href="#path3_stroke" transform="translate(1235 -1826)" fill="#3A4047"/>
</g>
</g>
</g>
</g>
</g>
</g>
<defs>
<path id="path0_stroke" d="M -0.943334 1.67291C -1.12661 2.1939 -0.852833 2.76481 -0.331843 2.94809C 0.189146 3.13136 0.760062 2.85758 0.943335 2.3366L -0.943334 1.67291ZM 5.83 3.00475L 4.83 3.00326L 4.83 3.00475L 5.83 3.00475ZM 2.51377 5.05607C 1.98983 5.23072 1.70667 5.79704 1.88132 6.32098C 2.05596 6.84492 2.62228 7.12808 3.14623 6.95344L 2.51377 5.05607ZM 0.943335 2.3366C 1.26696 1.41663 2.20692 0.8642 3.16812 1.02907L 3.50623 -0.942142C 1.58384 -1.27188 -0.296085 -0.167032 -0.943334 1.67291L 0.943335 2.3366ZM 3.16812 1.02907C 4.12931 1.19394 4.83145 2.02803 4.83 3.00326L 6.83 3.00624C 6.8329 1.05578 5.42862 -0.612401 3.50623 -0.942142L 3.16812 1.02907ZM 4.83 3.00475C 4.83 3.47389 4.4649 3.96297 3.7753 4.4227C 3.45307 4.63984 3.15321 4.7879 2.89261 4.90344C 2.76929 4.95844 2.67723 4.99511 2.60291 5.02339C 2.56901 5.03633 2.54729 5.04421 2.52868 5.05082C 2.52094 5.05358 2.51734 5.05483 2.51324 5.05623C 2.51195 5.05668 2.51076 5.05708 2.51144 5.05685C 2.5114 5.05686 2.51209 5.05663 2.51208 5.05663C 2.51189 5.0567 2.51289 5.05636 2.51279 5.0564C 2.51293 5.05635 2.51318 5.05627 2.51325 5.05624C 2.51351 5.05616 2.51377 5.05607 2.83 6.00475C 3.14623 6.95344 3.14652 6.95334 3.14682 6.95324C 3.14693 6.9532 3.14725 6.95309 3.14748 6.95302C 3.14776 6.95292 3.14846 6.95269 3.14901 6.9525C 3.14975 6.95225 3.15143 6.95169 3.15291 6.95119C 3.15512 6.95044 3.15958 6.94892 3.16397 6.94741C 3.17123 6.94491 3.18447 6.9403 3.1987 6.93525C 3.22404 6.92623 3.26677 6.91067 3.3149 6.89236C 3.40464 6.85814 3.54696 6.80106 3.70489 6.73106C 4.00679 6.5966 4.45693 6.36966 4.8847 6.0868C 5.6951 5.54654 6.83 4.53562 6.83 3.00475L 4.83 3.00475Z"/>
<path id="path1_fill" d="M 1 0.5C 1 0.776142 0.776142 1 0.5 1C 0.223858 1 0 0.776142 0 0.5C 0 0.223858 0.223858 0 0.5 0C 0.776142 0 1 0.223858 1 0.5Z"/>
<path id="path2_stroke_2x" d="M 0 0.5C 0 0.223858 0.223858 0 0.5 0L 0.5 2C 1.32843 2 2 1.32843 2 0.5L 0 0.5ZM 0.5 0C 0.776142 0 1 0.223858 1 0.5L -1 0.5C -1 1.32843 -0.328427 2 0.5 2L 0.5 0ZM 1 0.5C 1 0.776142 0.776142 1 0.5 1L 0.5 -1C -0.328427 -1 -1 -0.328427 -1 0.5L 1 0.5ZM 0.5 1C 0.223858 1 0 0.776142 0 0.5L 2 0.5C 2 -0.328427 1.32843 -1 0.5 -1L 0.5 1Z"/>
<path id="path3_stroke" d="M 19 10C 19 14.9706 14.9706 19 10 19L 10 21C 16.0751 21 21 16.0751 21 10L 19 10ZM 10 19C 5.02944 19 1 14.9706 1 10L -1 10C -1 16.0751 3.92487 21 10 21L 10 19ZM 1 10C 1 5.02944 5.02944 1 10 1L 10 -1C 3.92487 -1 -1 3.92487 -1 10L 1 10ZM 10 1C 14.9706 1 19 5.02944 19 10L 21 10C 21 3.92487 16.0751 -1 10 -1L 10 1Z"/>
</defs>
</svg>
