<svg width="20" height="20" viewBox="0 0 20 20" version="1.1" xmlns="http://www.w3.org/2000/svg" xmlns:xlink="http://www.w3.org/1999/xlink">
<title>image</title>
<desc>Created using Figma</desc>
<g id="Canvas" transform="translate(-965 1710)">
<g id="image">
<g id="Page 1">
<g id="feather icon">
<g id="image">
<g id="Rectangle path">
<use xlink:href="#path0_stroke" transform="translate(966 -1709)" fill="#3A4047"/>
</g>
<g id="Oval">
<use xlink:href="#path1_stroke" transform="translate(970 -1705)" fill="#3A4047"/>
</g>
<g id="Shape">
<use xlink:href="#path2_stroke" transform="translate(968 -1702)" fill="#3A4047"/>
</g>
</g>
</g>
</g>
</g>
</g>
<defs>
<path id="path0_stroke" d="M 2 1L 16 1L 16 -1L 2 -1L 2 1ZM 16 1C 16.5523 1 17 1.44772 17 2L 19 2C 19 0.343146 17.6569 -1 16 -1L 16 1ZM 17 2L 17 16L 19 16L 19 2L 17 2ZM 17 16C 17 16.5523 16.5523 17 16 17L 16 19C 17.6569 19 19 17.6569 19 16L 17 16ZM 16 17L 2 17L 2 19L 16 19L 16 17ZM 2 17C 1.44772 17 1 16.5523 1 16L -1 16C -1 17.6569 0.343146 19 2 19L 2 17ZM 1 16L 1 2L -1 2L -1 16L 1 16ZM 1 2C 1 1.44772 1.44772 1 2 1L 2 -1C 0.343146 -1 -1 0.343146 -1 2L 1 2Z"/>
<path id="path1_stroke" d="M 2 1.5C 2 1.77614 1.77614 2 1.5 2L 1.5 4C 2.88071 4 4 2.88071 4 1.5L 2 1.5ZM 1.5 2C 1.22386 2 1 1.77614 1 1.5L -1 1.5C -1 2.88071 0.119288 4 1.5 4L 1.5 2ZM 1 1.5C 1 1.22386 1.22386 1 1.5 1L 1.5 -1C 0.119288 -1 -1 0.119288 -1 1.5L 1 1.5ZM 1.5 1C 1.77614 1 2 1.22386 2 1.5L 4 1.5C 4 0.119288 2.88071 -1 1.5 -1L 1.5 1Z"/>
<path id="path2_stroke" d="M 15.2929 5.70711C 15.6834 6.09763 16.3166 6.09763 16.7071 5.70711C 17.0976 5.31658 17.0976 4.68342 16.7071 4.29289L 15.2929 5.70711ZM 11 0L 11.7071 -0.707107C 11.3166 -1.09763 10.6834 -1.09763 10.2929 -0.707107L 11 0ZM -0.707107 10.2929C -1.09763 10.6834 -1.09763 11.3166 -0.707107 11.7071C -0.316583 12.0976 0.316583 12.0976 0.707107 11.7071L -0.707107 10.2929ZM 16.7071 4.29289L 11.7071 -0.707107L 10.2929 0.707107L 15.2929 5.70711L 16.7071 4.29289ZM 10.2929 -0.707107L -0.707107 10.2929L 0.707107 11.7071L 11.7071 0.707107L 10.2929 -0.707107Z"/>
</defs>
</svg>
