<svg width="22" height="22" viewBox="0 0 22 22" version="1.1" xmlns="http://www.w3.org/2000/svg" xmlns:xlink="http://www.w3.org/1999/xlink">
<title>instagram</title>
<desc>Created using Figma</desc>
<g id="Canvas" transform="translate(-1328 1653)">
<g id="instagram">
<g id="Page 1">
<g id="feather icon">
<g id="instagram">
<g id="Rectangle path">
<use xlink:href="#path0_stroke" transform="translate(1329 -1652)" fill="#3A4047"/>
</g>
<g id="Shape">
<use xlink:href="#path1_stroke" transform="translate(1335.04 -1646.04)" fill="#3A4047"/>
</g>
</g>
</g>
</g>
</g>
</g>
<defs>
<path id="path0_stroke" d="M 5 1L 15 1L 15 -1L 5 -1L 5 1ZM 15 1C 17.2091 1 19 2.79086 19 5L 21 5C 21 1.68629 18.3137 -1 15 -1L 15 1ZM 19 5L 19 15L 21 15L 21 5L 19 5ZM 19 15C 19 17.2091 17.2091 19 15 19L 15 21C 18.3137 21 21 18.3137 21 15L 19 15ZM 15 19L 5 19L 5 21L 15 21L 15 19ZM 5 19C 2.79086 19 1 17.2091 1 15L -1 15C -1 18.3137 1.68629 21 5 21L 5 19ZM 1 15L 1 5L -1 5L -1 15L 1 15ZM 1 5C 1 2.79086 2.79086 1 5 1L 5 -1C 1.68629 -1 -1 1.68629 -1 5L 1 5Z"/>
<path id="path1_stroke" d="M 7.95684 3.41345L 8.94603 3.26677L 7.95684 3.41345ZM 5.79847 7.57312L 5.34888 6.67989L 5.34888 6.67989L 5.79847 7.57312ZM 1.17168 6.82861L 1.87879 6.12151L 1.17168 6.82861ZM 4.58684 0.0434512L 4.73353 -0.945732L 4.58684 0.0434512ZM 6.96766 3.56013C 7.1575 4.84036 6.50493 6.09802 5.34888 6.67989L 6.24806 8.46636C 8.17481 7.49657 9.26243 5.40048 8.94603 3.26677L 6.96766 3.56013ZM 5.34888 6.67989C 4.19283 7.26176 2.79395 7.03666 1.87879 6.12151L 0.464576 7.53572C 1.98984 9.06098 4.32131 9.43615 6.24806 8.46636L 5.34888 6.67989ZM 1.87879 6.12151C 0.963632 5.20635 0.738533 3.80746 1.3204 2.65142L -0.466065 1.75224C -1.43585 3.67898 -1.06069 6.01046 0.464576 7.53572L 1.87879 6.12151ZM 1.3204 2.65142C 1.90228 1.49537 3.15993 0.842793 4.44016 1.03263L 4.73353 -0.945732C 2.59981 -1.26214 0.503721 -0.174514 -0.466065 1.75224L 1.3204 2.65142ZM 4.44016 1.03263C 5.74739 1.22648 6.77381 2.2529 6.96766 3.56013L 8.94603 3.26677C 8.62295 1.08805 6.91225 -0.622655 4.73353 -0.945732L 4.44016 1.03263Z"/>
</defs>
</svg>
