<svg width="22" height="22" viewBox="0 0 22 22" version="1.1" xmlns="http://www.w3.org/2000/svg" xmlns:xlink="http://www.w3.org/1999/xlink">
<title>move</title>
<desc>Created using Figma</desc>
<g id="Canvas" transform="translate(-1170 1711)">
<g id="move">
<g id="Page 1">
<g id="feather icon">
<g id="move">
<g id="Shape">
<use xlink:href="#path0_stroke" transform="translate(1171 -1703)" fill="#3A4047"/>
</g>
<g id="Shape">
<use xlink:href="#path1_stroke" transform="translate(1178 -1710)" fill="#3A4047"/>
</g>
<g id="Shape">
<use xlink:href="#path2_stroke" transform="translate(1178 -1693)" fill="#3A4047"/>
</g>
<g id="Shape">
<use xlink:href="#path3_stroke" transform="translate(1188 -1703)" fill="#3A4047"/>
</g>
<g id="Shape">
<use xlink:href="#path4_stroke" transform="translate(1171 -1700)" fill="#3A4047"/>
</g>
<g id="Shape">
<use xlink:href="#path5_stroke" transform="translate(1181 -1710)" fill="#3A4047"/>
</g>
</g>
</g>
</g>
</g>
</g>
<defs>
<path id="path0_stroke" d="M 3.70711 0.707107C 4.09763 0.316583 4.09763 -0.316583 3.70711 -0.707107C 3.31658 -1.09763 2.68342 -1.09763 2.29289 -0.707107L 3.70711 0.707107ZM 0 3L -0.707107 2.29289C -1.09763 2.68342 -1.09763 3.31658 -0.707107 3.70711L 0 3ZM 2.29289 6.70711C 2.68342 7.09763 3.31658 7.09763 3.70711 6.70711C 4.09763 6.31658 4.09763 5.68342 3.70711 5.29289L 2.29289 6.70711ZM 2.29289 -0.707107L -0.707107 2.29289L 0.707107 3.70711L 3.70711 0.707107L 2.29289 -0.707107ZM -0.707107 3.70711L 2.29289 6.70711L 3.70711 5.29289L 0.707107 2.29289L -0.707107 3.70711Z"/>
<path id="path1_stroke" d="M -0.707107 2.29289C -1.09763 2.68342 -1.09763 3.31658 -0.707107 3.70711C -0.316583 4.09763 0.316583 4.09763 0.707107 3.70711L -0.707107 2.29289ZM 3 0L 3.70711 -0.707107C 3.31658 -1.09763 2.68342 -1.09763 2.29289 -0.707107L 3 0ZM 5.29289 3.70711C 5.68342 4.09763 6.31658 4.09763 6.70711 3.70711C 7.09763 3.31658 7.09763 2.68342 6.70711 2.29289L 5.29289 3.70711ZM 0.707107 3.70711L 3.70711 0.707107L 2.29289 -0.707107L -0.707107 2.29289L 0.707107 3.70711ZM 2.29289 0.707107L 5.29289 3.70711L 6.70711 2.29289L 3.70711 -0.707107L 2.29289 0.707107Z"/>
<path id="path2_stroke" d="M 6.70711 0.707107C 7.09763 0.316583 7.09763 -0.316583 6.70711 -0.707107C 6.31658 -1.09763 5.68342 -1.09763 5.29289 -0.707107L 6.70711 0.707107ZM 3 3L 2.29289 3.70711C 2.68342 4.09763 3.31658 4.09763 3.70711 3.70711L 3 3ZM 0.707107 -0.707107C 0.316583 -1.09763 -0.316583 -1.09763 -0.707107 -0.707107C -1.09763 -0.316583 -1.09763 0.316583 -0.707107 0.707107L 0.707107 -0.707107ZM 5.29289 -0.707107L 2.29289 2.29289L 3.70711 3.70711L 6.70711 0.707107L 5.29289 -0.707107ZM 3.70711 2.29289L 0.707107 -0.707107L -0.707107 0.707107L 2.29289 3.70711L 3.70711 2.29289Z"/>
<path id="path3_stroke" d="M 0.707107 -0.707107C 0.316583 -1.09763 -0.316583 -1.09763 -0.707107 -0.707107C -1.09763 -0.316583 -1.09763 0.316583 -0.707107 0.707107L 0.707107 -0.707107ZM 3 3L 3.70711 3.70711C 4.09763 3.31658 4.09763 2.68342 3.70711 2.29289L 3 3ZM -0.707107 5.29289C -1.09763 5.68342 -1.09763 6.31658 -0.707107 6.70711C -0.316583 7.09763 0.316583 7.09763 0.707107 6.70711L -0.707107 5.29289ZM -0.707107 0.707107L 2.29289 3.70711L 3.70711 2.29289L 0.707107 -0.707107L -0.707107 0.707107ZM 2.29289 2.29289L -0.707107 5.29289L 0.707107 6.70711L 3.70711 3.70711L 2.29289 2.29289Z"/>
<path id="path4_stroke" d="M 0 -1C -0.552285 -1 -1 -0.552285 -1 0C -1 0.552285 -0.552285 1 0 1L 0 -1ZM 20 1C 20.5523 1 21 0.552285 21 0C 21 -0.552285 20.5523 -1 20 -1L 20 1ZM 0 1L 20 1L 20 -1L 0 -1L 0 1Z"/>
<path id="path5_stroke" d="M 1 0C 1 -0.552285 0.552285 -1 0 -1C -0.552285 -1 -1 -0.552285 -1 0L 1 0ZM -1 20C -1 20.5523 -0.552285 21 0 21C 0.552285 21 1 20.5523 1 20L -1 20ZM -1 0L -1 20L 1 20L 1 0L -1 0Z"/>
</defs>
</svg>
