<svg width="22" height="23" viewBox="0 0 22 23" version="1.1" xmlns="http://www.w3.org/2000/svg" xmlns:xlink="http://www.w3.org/1999/xlink">
<title>paperclip</title>
<desc>Created using Figma</desc>
<g id="Canvas" transform="translate(-1129 1827)">
<g id="paperclip">
<g id="Page 1">
<g id="feather icon">
<g id="paperclip">
<g id="Shape">
<use xlink:href="#path0_stroke" transform="translate(1130 -1826)" fill="#3A4047"/>
</g>
</g>
</g>
</g>
</g>
</g>
<defs>
<path id="path0_stroke" d="M 20.1454 10.3693C 20.536 9.97881 20.536 9.34564 20.1454 8.95512C 19.7549 8.56459 19.1218 8.56459 18.7312 8.95512L 20.1454 10.3693ZM 10.2483 18.8522L 9.54123 18.1451L 10.2483 18.8522ZM 1.75834 10.3622L 2.46544 11.0693L 1.75834 10.3622ZM 10.9483 1.17222L 10.2412 0.465118L 10.9483 1.17222ZM 16.6083 1.17222L 17.3154 0.465118L 16.6083 1.17222ZM 16.6083 6.83222L 17.3151 7.53972L 17.3154 7.53933L 16.6083 6.83222ZM 7.40834 16.0222L 6.70161 15.3147L 6.70123 15.3151L 7.40834 16.0222ZM 4.57834 13.1922L 3.87165 12.4847L 3.87123 12.4851L 4.57834 13.1922ZM 13.775 5.41975C 14.1658 5.02945 14.1662 4.39629 13.7759 4.00553C 13.3856 3.61478 12.7524 3.61441 12.3616 4.0047L 13.775 5.41975ZM 18.7312 8.95512L 9.54123 18.1451L 10.9554 19.5593L 20.1454 10.3693L 18.7312 8.95512ZM 9.54123 18.1451C 7.58731 20.099 4.41937 20.099 2.46544 18.1451L 1.05123 19.5593C 3.7862 22.2943 8.22047 22.2943 10.9554 19.5593L 9.54123 18.1451ZM 2.46544 18.1451C 0.511519 16.1912 0.511519 13.0233 2.46544 11.0693L 1.05123 9.65512C -1.68374 12.3901 -1.68374 16.8244 1.05123 19.5593L 2.46544 18.1451ZM 2.46544 11.0693L 11.6554 1.87933L 10.2412 0.465118L 1.05123 9.65512L 2.46544 11.0693ZM 11.6554 1.87933C 12.8279 0.70689 14.7288 0.70689 15.9012 1.87933L 17.3154 0.465118C 15.362 -1.48837 12.1947 -1.48837 10.2412 0.465118L 11.6554 1.87933ZM 15.9012 1.87933C 17.0737 3.05177 17.0737 4.95268 15.9012 6.12512L 17.3154 7.53933C 19.2689 5.58584 19.2689 2.41861 17.3154 0.465118L 15.9012 1.87933ZM 15.9016 6.12473L 6.70161 15.3147L 8.11506 16.7297L 17.3151 7.53972L 15.9016 6.12473ZM 6.70123 15.3151C 6.31027 15.7061 5.6764 15.7061 5.28544 15.3151L 3.87123 16.7293C 5.04324 17.9013 6.94344 17.9013 8.11544 16.7293L 6.70123 15.3151ZM 5.28544 15.3151C 4.89448 14.9242 4.89448 14.2903 5.28544 13.8993L 3.87123 12.4851C 2.69922 13.6571 2.69922 15.5573 3.87123 16.7293L 5.28544 15.3151ZM 5.28503 13.8997L 13.775 5.41975L 12.3616 4.0047L 3.87165 12.4847L 5.28503 13.8997Z"/>
</defs>
</svg>
