<svg width="22" height="22" viewBox="0 0 22 22" version="1.1" xmlns="http://www.w3.org/2000/svg" xmlns:xlink="http://www.w3.org/1999/xlink">
<title>play-circle</title>
<desc>Created using Figma</desc>
<g id="Canvas" transform="translate(-1273 1711)">
<g id="play-circle">
<g id="Page 1">
<g id="feather icon">
<g id="play circle">
<g id="Oval">
<use xlink:href="#path0_stroke" transform="translate(1274 -1710)" fill="#3A4047"/>
</g>
<g id="Shape">
<use xlink:href="#path1_stroke" transform="translate(1282 -1704)" fill="#3A4047"/>
</g>
</g>
</g>
</g>
</g>
</g>
<defs>
<path id="path0_stroke" d="M 19 10C 19 14.9706 14.9706 19 10 19L 10 21C 16.0751 21 21 16.0751 21 10L 19 10ZM 10 19C 5.02944 19 1 14.9706 1 10L -1 10C -1 16.0751 3.92487 21 10 21L 10 19ZM 1 10C 1 5.02944 5.02944 1 10 1L 10 -1C 3.92487 -1 -1 3.92487 -1 10L 1 10ZM 10 1C 14.9706 1 19 5.02944 19 10L 21 10C 21 3.92487 16.0751 -1 10 -1L 10 1Z"/>
<path id="path1_stroke" d="M 0 0L 0.5547 -0.83205C 0.247844 -1.03662 -0.1467 -1.05569 -0.471858 -0.881675C -0.797015 -0.707656 -1 -0.368795 -1 -1.84752e-16L 0 0ZM 6 4L 6.5547 4.83205C 6.8329 4.64658 7 4.33435 7 4C 7 3.66565 6.8329 3.35342 6.5547 3.16795L 6 4ZM 0 8L -1 8C -1 8.3688 -0.797015 8.70766 -0.471858 8.88167C -0.1467 9.05569 0.247844 9.03662 0.5547 8.83205L 0 8ZM -0.5547 0.83205L 5.4453 4.83205L 6.5547 3.16795L 0.5547 -0.83205L -0.5547 0.83205ZM 5.4453 3.16795L -0.5547 7.16795L 0.5547 8.83205L 6.5547 4.83205L 5.4453 3.16795ZM 1 8L 1 0L -1 0L -1 8L 1 8Z"/>
</defs>
</svg>
