<svg width="24" height="24" viewBox="0 0 24 24" version="1.1" xmlns="http://www.w3.org/2000/svg" xmlns:xlink="http://www.w3.org/1999/xlink">
<title>settings</title>
<desc>Created using Figma</desc>
<g id="Canvas" transform="translate(-984 1770)">
<g id="settings">
<g id="Page 1">
<g id="feather icon">
<g id="settings">
<g id="Oval">
<use xlink:href="#path0_stroke" transform="translate(993 -1761)" fill="#3A4047"/>
</g>
<g id="Shape">
<use xlink:href="#path1_stroke" transform="translate(985 -1769)" fill="#3A4047"/>
</g>
</g>
</g>
</g>
</g>
</g>
<defs>
<path id="path0_stroke" d="M 5 3C 5 4.10457 4.10457 5 3 5L 3 7C 5.20914 7 7 5.20914 7 3L 5 3ZM 3 5C 1.89543 5 1 4.10457 1 3L -1 3C -1 5.20914 0.790861 7 3 7L 3 5ZM 1 3C 1 1.89543 1.89543 1 3 1L 3 -1C 0.790861 -1 -1 0.790861 -1 3L 1 3ZM 3 1C 4.10457 1 5 1.89543 5 3L 7 3C 7 0.790861 5.20914 -1 3 -1L 3 1Z"/>
<path id="path1_stroke" d="M 18.4 14L 19.3149 14.4038L 19.3191 14.3939L 18.4 14ZM 18.73 15.82L 18.0151 16.5193L 18.0229 16.5271L 18.73 15.82ZM 18.79 15.88L 18.0829 16.5871L 18.0833 16.5875L 18.79 15.88ZM 18.79 18.71L 18.0833 18.0025L 18.0825 18.0033L 18.79 18.71ZM 15.96 18.71L 16.6675 18.0033L 16.6671 18.0029L 15.96 18.71ZM 15.9 18.65L 16.6071 17.9428L 16.5993 17.9351L 15.9 18.65ZM 14.08 18.32L 14.474 19.2392L 14.4838 19.2349L 14.08 18.32ZM 13.08 19.83L 12.08 19.826L 12.08 19.83L 13.08 19.83ZM 9.08 19.91L 10.08 19.91C 10.08 19.9022 10.0799 19.8944 10.0797 19.8866L 9.08 19.91ZM 8 18.4L 7.59623 19.3149C 7.61551 19.3234 7.63505 19.3313 7.65482 19.3385L 8 18.4ZM 6.18 18.73L 5.48069 18.0151L 5.47288 18.0229L 6.18 18.73ZM 6.12 18.79L 5.41288 18.0829L 5.4125 18.0833L 6.12 18.79ZM 3.29 18.79L 3.9975 18.0833L 3.99671 18.0825L 3.29 18.79ZM 3.29 15.96L 3.99671 16.6675L 3.99711 16.6671L 3.29 15.96ZM 3.35 15.9L 4.05715 16.6071L 4.06486 16.5993L 3.35 15.9ZM 3.68 14.08L 2.76081 14.474L 2.76514 14.4838L 3.68 14.08ZM 2.17 13.08L 2.17399 12.08L 2.17 12.08L 2.17 13.08ZM 0 11.08L -1 11.08L 0 11.08ZM 2.09 9.08L 2.09 10.08C 2.0978 10.08 2.10559 10.0799 2.11338 10.0797L 2.09 9.08ZM 3.6 8L 2.68514 7.59623C 2.67663 7.61551 2.66874 7.63505 2.66146 7.65482L 3.6 8ZM 3.27 6.18L 3.98491 5.48069L 3.97711 5.47289L 3.27 6.18ZM 3.21 6.12L 3.91711 5.41289L 3.91671 5.4125L 3.21 6.12ZM 3.21 3.29L 3.91671 3.9975L 3.9175 3.99671L 3.21 3.29ZM 6.04 3.29L 5.3325 3.99671L 5.33289 3.99711L 6.04 3.29ZM 6.1 3.35L 5.39285 4.05715L 5.40073 4.06486L 6.1 3.35ZM 7.92 3.68L 7.92 2.68C 7.78096 2.68 7.64344 2.709 7.51623 2.76514L 7.92 3.68ZM 8 3.68L 8 4.68C 8.13543 4.68 8.26945 4.65249 8.39393 4.59914L 8 3.68ZM 9 2.17L 10 2.17399L 10 2.17L 9 2.17ZM 13 2.09L 12 2.09L 12 2.09399L 13 2.09ZM 14 3.6L 14.4038 2.68508L 14.3939 2.68086L 14 3.6ZM 15.82 3.27L 16.5193 3.98491L 16.5271 3.97711L 15.82 3.27ZM 15.88 3.21L 16.5871 3.91711L 16.5875 3.91671L 15.88 3.21ZM 18.71 3.21L 18.0025 3.91671L 18.0033 3.9175L 18.71 3.21ZM 18.71 6.04L 18.0033 5.3325L 18.0029 5.3329L 18.71 6.04ZM 18.65 6.1L 17.9428 5.39285L 17.9351 5.40073L 18.65 6.1ZM 18.32 7.92L 19.32 7.92C 19.32 7.78096 19.291 7.64344 19.2349 7.51623L 18.32 7.92ZM 18.32 8L 17.32 8C 17.32 8.13543 17.3475 8.26945 17.4009 8.39393L 18.32 8ZM 19.83 9L 19.826 10L 19.83 10L 19.83 9ZM 19.91 13L 19.91 12L 19.906 12L 19.91 13ZM 17.4851 13.5962C 17.0477 14.5873 17.2576 15.7448 18.0151 16.5193L 19.4449 15.1207C 19.2591 14.9308 19.2076 14.6469 19.3149 14.4038L 17.4851 13.5962ZM 18.0229 16.5271L 18.0829 16.5871L 19.4971 15.1729L 19.4371 15.1129L 18.0229 16.5271ZM 18.0833 16.5875C 18.2711 16.7751 18.3766 17.0296 18.3766 17.295L 20.3766 17.295C 20.3766 16.4988 20.06 15.7352 19.4967 15.1725L 18.0833 16.5875ZM 18.3766 17.295C 18.3766 17.5604 18.2711 17.8149 18.0833 18.0025L 19.4967 19.4175C 20.06 18.8548 20.3766 18.0912 20.3766 17.295L 18.3766 17.295ZM 18.0825 18.0033C 17.8949 18.1911 17.6404 18.2966 17.375 18.2966L 17.375 20.2966C 18.1712 20.2966 18.9348 19.98 19.4975 19.4167L 18.0825 18.0033ZM 17.375 18.2966C 17.1096 18.2966 16.8551 18.1911 16.6675 18.0033L 15.2525 19.4167C 15.8152 19.98 16.5788 20.2966 17.375 20.2966L 17.375 18.2966ZM 16.6671 18.0029L 16.6071 17.9429L 15.1929 19.3571L 15.2529 19.4171L 16.6671 18.0029ZM 16.5993 17.9351C 15.8248 17.1776 14.6673 16.9677 13.6762 17.4051L 14.4838 19.2349C 14.7269 19.1276 15.0108 19.1791 15.2007 19.3649L 16.5993 17.9351ZM 13.6861 17.4009C 12.7153 17.8169 12.0842 18.7698 12.08 19.826L 14.08 19.834C 14.081 19.5749 14.2358 19.3412 14.4739 19.2391L 13.6861 17.4009ZM 12.08 19.83L 12.08 20L 14.08 20L 14.08 19.83L 12.08 19.83ZM 12.08 20C 12.08 20.5523 11.6323 21 11.08 21L 11.08 23C 12.7369 23 14.08 21.6569 14.08 20L 12.08 20ZM 11.08 21C 10.5277 21 10.08 20.5523 10.08 20L 8.08 20C 8.08 21.6569 9.42315 23 11.08 23L 11.08 21ZM 10.08 20L 10.08 19.91L 8.08 19.91L 8.08 20L 10.08 20ZM 10.0797 19.8866C 10.0543 18.7988 9.36643 17.8371 8.34518 17.4615L 7.65482 19.3385C 7.90531 19.4307 8.07403 19.6666 8.08027 19.9334L 10.0797 19.8866ZM 8.40377 17.4851C 7.41268 17.0477 6.25516 17.2576 5.48073 18.0151L 6.87926 19.4449C 7.06922 19.2591 7.35314 19.2076 7.59623 19.3149L 8.40377 17.4851ZM 5.47288 18.0229L 5.41288 18.0829L 6.82712 19.4971L 6.88712 19.4371L 5.47288 18.0229ZM 5.4125 18.0833C 5.22493 18.2711 4.97041 18.3766 4.705 18.3766L 4.705 20.3766C 5.50123 20.3766 6.26479 20.06 6.8275 19.4967L 5.4125 18.0833ZM 4.705 18.3766C 4.43959 18.3766 4.18507 18.2711 3.9975 18.0833L 2.5825 19.4967C 3.14521 20.06 3.90877 20.3766 4.705 20.3766L 4.705 18.3766ZM 3.99671 18.0825C 3.80894 17.8949 3.70343 17.6404 3.70343 17.375L 1.70343 17.375C 1.70343 18.1712 2.01996 18.9348 2.58329 19.4975L 3.99671 18.0825ZM 3.70343 17.375C 3.70343 17.1096 3.80894 16.8551 3.99671 16.6675L 2.58329 15.2525C 2.01996 15.8152 1.70343 16.5788 1.70343 17.375L 3.70343 17.375ZM 3.99711 16.6671L 4.05711 16.6071L 2.64289 15.1929L 2.58289 15.2529L 3.99711 16.6671ZM 4.06486 16.5993C 4.82239 15.8248 5.03227 14.6673 4.59486 13.6762L 2.76514 14.4838C 2.87243 14.7269 2.82095 15.0108 2.63514 15.2007L 4.06486 16.5993ZM 4.59914 13.6861C 4.18306 12.7153 3.2302 12.0842 2.17399 12.08L 2.16601 14.08C 2.42508 14.081 2.6588 14.2358 2.76086 14.4739L 4.59914 13.6861ZM 2.17 12.08L 2 12.08L 2 14.08L 2.17 14.08L 2.17 12.08ZM 2 12.08C 1.44772 12.08 1 11.6323 1 11.08L -1 11.08C -1 12.7369 0.343146 14.08 2 14.08L 2 12.08ZM 1 11.08C 1 10.5277 1.44772 10.08 2 10.08L 2 8.08C 0.343146 8.08 -1 9.42315 -1 11.08L 1 11.08ZM 2 10.08L 2.09 10.08L 2.09 8.08L 2 8.08L 2 10.08ZM 2.11338 10.0797C 3.20122 10.0543 4.16293 9.36643 4.53854 8.34518L 2.66146 7.65482C 2.56934 7.90531 2.33344 8.07403 2.06662 8.08027L 2.11338 10.0797ZM 4.51486 8.40377C 4.95227 7.41268 4.74239 6.25516 3.98486 5.48073L 2.55514 6.87926C 2.74095 7.06922 2.79243 7.35314 2.68514 7.59623L 4.51486 8.40377ZM 3.97711 5.47289L 3.91711 5.41289L 2.50289 6.82711L 2.56289 6.88711L 3.97711 5.47289ZM 3.91671 5.4125C 3.72894 5.22493 3.62343 4.97041 3.62343 4.705L 1.62343 4.705C 1.62343 5.50123 1.93996 6.2648 2.50329 6.8275L 3.91671 5.4125ZM 3.62343 4.705C 3.62343 4.43959 3.72894 4.18507 3.91671 3.9975L 2.50329 2.5825C 1.93996 3.1452 1.62343 3.90877 1.62343 4.705L 3.62343 4.705ZM 3.9175 3.99671C 4.10507 3.80894 4.35959 3.70343 4.625 3.70343L 4.625 1.70343C 3.82877 1.70343 3.0652 2.01996 2.5025 2.58329L 3.9175 3.99671ZM 4.625 3.70343C 4.89041 3.70343 5.14493 3.80894 5.3325 3.99671L 6.7475 2.58329C 6.1848 2.01996 5.42123 1.70343 4.625 1.70343L 4.625 3.70343ZM 5.33289 3.99711L 5.39289 4.05711L 6.80711 2.64289L 6.74711 2.58289L 5.33289 3.99711ZM 5.40073 4.06486C 6.17516 4.82239 7.33268 5.03227 8.32377 4.59486L 7.51623 2.76514C 7.27314 2.87243 6.98922 2.82095 6.79926 2.63514L 5.40073 4.06486ZM 7.92 4.68L 8 4.68L 8 2.68L 7.92 2.68L 7.92 4.68ZM 8.39393 4.59914C 9.36475 4.18306 9.99578 3.2302 9.99999 2.17399L 8.00001 2.16601C 7.99897 2.42508 7.84419 2.6588 7.60607 2.76086L 8.39393 4.59914ZM 10 2.17L 10 2L 8 2L 8 2.17L 10 2.17ZM 10 2C 10 1.44772 10.4477 1 11 1L 11 -1C 9.34315 -1 8 0.343146 8 2L 10 2ZM 11 1C 11.5523 1 12 1.44772 12 2L 14 2C 14 0.343146 12.6569 -1 11 -1L 11 1ZM 12 2L 12 2.09L 14 2.09L 14 2L 12 2ZM 12 2.09399C 12.0042 3.1502 12.6353 4.10306 13.6061 4.51914L 14.3939 2.68086C 14.1558 2.5788 14.001 2.34508 14 2.08601L 12 2.09399ZM 13.5962 4.51486C 14.5873 4.95227 15.7448 4.74239 16.5193 3.98486L 15.1207 2.55514C 14.9308 2.74095 14.6469 2.79243 14.4038 2.68514L 13.5962 4.51486ZM 16.5271 3.97711L 16.5871 3.91711L 15.1729 2.50289L 15.1129 2.56289L 16.5271 3.97711ZM 16.5875 3.91671C 16.7751 3.72894 17.0296 3.62343 17.295 3.62343L 17.295 1.62343C 16.4988 1.62343 15.7352 1.93996 15.1725 2.50329L 16.5875 3.91671ZM 17.295 3.62343C 17.5604 3.62343 17.8149 3.72894 18.0025 3.91671L 19.4175 2.50329C 18.8548 1.93996 18.0912 1.62343 17.295 1.62343L 17.295 3.62343ZM 18.0033 3.9175C 18.1911 4.10507 18.2966 4.35959 18.2966 4.625L 20.2966 4.625C 20.2966 3.82877 19.98 3.0652 19.4167 2.5025L 18.0033 3.9175ZM 18.2966 4.625C 18.2966 4.89041 18.1911 5.14493 18.0033 5.3325L 19.4167 6.7475C 19.98 6.1848 20.2966 5.42123 20.2966 4.625L 18.2966 4.625ZM 18.0029 5.3329L 17.9429 5.3929L 19.3571 6.8071L 19.4171 6.7471L 18.0029 5.3329ZM 17.9351 5.40073C 17.1776 6.17516 16.9677 7.33268 17.4051 8.32377L 19.2349 7.51623C 19.1276 7.27314 19.1791 6.98922 19.3649 6.79926L 17.9351 5.40073ZM 17.32 7.92L 17.32 8L 19.32 8L 19.32 7.92L 17.32 7.92ZM 17.4009 8.39393C 17.8169 9.36475 18.7698 9.99578 19.826 9.99999L 19.834 8.00001C 19.5749 7.99897 19.3412 7.84419 19.2391 7.60607L 17.4009 8.39393ZM 19.83 10L 20 10L 20 8L 19.83 8L 19.83 10ZM 20 10C 20.5523 10 21 10.4477 21 11L 23 11C 23 9.34315 21.6569 8 20 8L 20 10ZM 21 11C 21 11.5523 20.5523 12 20 12L 20 14C 21.6569 14 23 12.6569 23 11L 21 11ZM 20 12L 19.91 12L 19.91 14L 20 14L 20 12ZM 19.906 12C 18.8498 12.0042 17.8969 12.6353 17.4809 13.6061L 19.3191 14.3939C 19.4212 14.1558 19.6549 14.001 19.914 14L 19.906 12Z"/>
</defs>
</svg>
