<svg width="24" height="24" viewBox="0 0 24 24" version="1.1" xmlns="http://www.w3.org/2000/svg" xmlns:xlink="http://www.w3.org/1999/xlink">
<title>shopping-cart</title>
<desc>Created using Figma</desc>
<g id="Canvas" transform="translate(-1022 1654)">
<g id="shopping-cart">
<g id="Page 1">
<g id="feather icon">
<g id="shopping cart">
<g id="Oval">
<use xlink:href="#path0_stroke" transform="translate(1028 -1635)" fill="#3A4047"/>
</g>
<g id="Oval">
<use xlink:href="#path0_stroke" transform="translate(1040 -1635)" fill="#3A4047"/>
</g>
<g id="Shape">
<use xlink:href="#path1_stroke" transform="translate(1023 -1653)" fill="#3A4047"/>
</g>
</g>
</g>
</g>
</g>
</g>
<defs>
<path id="path0_stroke" d="M 3 2C 3 2.55228 2.55228 3 2 3L 2 5C 3.65685 5 5 3.65685 5 2L 3 2ZM 2 3C 1.44772 3 1 2.55228 1 2L -1 2C -1 3.65685 0.343146 5 2 5L 2 3ZM 1 2C 1 1.44772 1.44772 1 2 1L 2 -1C 0.343146 -1 -1 0.343146 -1 2L 1 2ZM 2 1C 2.55228 1 3 1.44772 3 2L 5 2C 5 0.343146 3.65685 -1 2 -1L 2 1Z"/>
<path id="path1_stroke" d="M 4.67 4C 4.11772 4 3.67 4.44772 3.67 5C 3.67 5.55228 4.11772 6 4.67 6L 4.67 4ZM 22 5L 22.9805 5.19634C 23.0394 4.90254 22.9634 4.59784 22.7734 4.3661C 22.5835 4.13436 22.2996 4 22 4L 22 5ZM 20.32 13.39L 19.3395 13.1937L 19.3392 13.1952L 20.32 13.39ZM 18.32 15L 18.3392 14.0002C 18.3328 14.0001 18.3264 14 18.32 14L 18.32 15ZM 7.75 15L 7.75 14L 7.74152 14L 7.75 15ZM 5.75 13.26L 6.74152 13.13L 6.74141 13.1292L 5.75 13.26ZM 4.23 1.74L 3.23849 1.87L 3.23859 1.87081L 4.23 1.74ZM 2.25 0L 2.25151 -1L 2.25 -1L 2.25 0ZM 0 -1C -0.552285 -1 -1 -0.552285 -1 0C -1 0.552285 -0.552285 1 0 1L 0 -1ZM 4.67 6L 22 6L 22 4L 4.67 4L 4.67 6ZM 21.0195 4.80366L 19.3395 13.1937L 21.3005 13.5863L 22.9805 5.19634L 21.0195 4.80366ZM 19.3392 13.1952C 19.2448 13.6703 18.8235 14.0095 18.3392 14.0002L 18.3008 15.9998C 19.7538 16.0277 21.0177 15.0102 21.3008 13.5848L 19.3392 13.1952ZM 18.32 14L 7.75 14L 7.75 16L 18.32 16L 18.32 14ZM 7.74152 14C 7.23626 14.0043 6.80719 13.631 6.74152 13.13L 4.75848 13.39C 4.95548 14.8929 6.2427 16.0128 7.75848 16L 7.74152 14ZM 6.74141 13.1292L 5.22141 1.60919L 3.23859 1.87081L 4.75859 13.3908L 6.74141 13.1292ZM 5.22151 1.61C 5.02595 0.118395 3.75588 -0.997721 2.25151 -0.999999L 2.24849 0.999999C 2.74994 1.00076 3.1733 1.3728 3.23849 1.87L 5.22151 1.61ZM 2.25 -1L 0 -1L 0 1L 2.25 1L 2.25 -1Z"/>
</defs>
</svg>
