<svg width="22" height="22" viewBox="0 0 22 22" version="1.1" xmlns="http://www.w3.org/2000/svg" xmlns:xlink="http://www.w3.org/1999/xlink">
<title>thumbs-up</title>
<desc>Created using Figma</desc>
<g id="Canvas" transform="translate(-1043 1769)">
<g id="thumbs-up">
<g id="Page 1">
<g id="feather icon">
<g id="thumbs up">
<g id="Shape">
<use xlink:href="#path0_stroke" transform="translate(1044 -1768)" fill="#3A4047"/>
</g>
</g>
</g>
</g>
</g>
</g>
<defs>
<path id="path0_stroke" d="M 12 7L 11 7C 11 7.55228 11.4477 8 12 8L 12 7ZM 9 1.49937e-25L 9 -1C 8.60481 -1 8.24669 -0.767266 8.08619 -0.406138L 9 1.49937e-25ZM 5 9L 4.08619 8.59386C 4.02936 8.72172 4 8.86008 4 9L 5 9ZM 5 20L 4 20C 4 20.5523 4.44772 21 5 21L 5 20ZM 16.28 20L 16.2913 19L 16.28 19L 16.28 20ZM 18.28 18.3L 17.2916 18.1484L 17.2913 18.1501L 18.28 18.3ZM 19.66 9.3L 20.6484 9.45156L 20.6487 9.45006L 19.66 9.3ZM 17.66 7L 17.66 8.00006L 17.6713 7.99994L 17.66 7ZM 5 20L 5 21C 5.55228 21 6 20.5523 6 20L 5 20ZM 5 9L 6 9C 6 8.44771 5.55228 8 5 8L 5 9ZM 13 7L 13 3L 11 3L 11 7L 13 7ZM 13 3C 13 0.790861 11.2091 -1 9 -1L 9 1C 10.1046 1 11 1.89543 11 3L 13 3ZM 8.08619 -0.406138L 4.08619 8.59386L 5.91381 9.40614L 9.91381 0.406138L 8.08619 -0.406138ZM 4 9L 4 20L 6 20L 6 9L 4 9ZM 5 21L 16.28 21L 16.28 19L 5 19L 5 21ZM 16.2687 20.9999C 17.7646 21.0168 19.0444 19.929 19.2687 18.4499L 17.2913 18.1501C 17.2165 18.6431 16.7899 19.0057 16.2913 19.0001L 16.2687 20.9999ZM 19.2684 18.4516L 20.6484 9.45156L 18.6716 9.14844L 17.2916 18.1484L 19.2684 18.4516ZM 20.6487 9.45006C 20.7808 8.57985 20.524 7.69553 19.9465 7.03134L 18.4373 8.34369C 18.6298 8.56509 18.7154 8.85986 18.6713 9.14994L 20.6487 9.45006ZM 19.9465 7.03134C 19.3689 6.36714 18.5288 5.9901 17.6487 6.00006L 17.6713 7.99994C 17.9647 7.99661 18.2447 8.1223 18.4373 8.34369L 19.9465 7.03134ZM 17.66 6L 12 6L 12 8L 17.66 8L 17.66 6ZM 5 19L 2 19L 2 21L 5 21L 5 19ZM 2 19C 1.44772 19 1 18.5523 1 18L -1 18C -1 19.6569 0.343146 21 2 21L 2 19ZM 1 18L 1 11L -1 11L -1 18L 1 18ZM 1 11C 1 10.4477 1.44772 10 2 10L 2 8C 0.343146 8 -1 9.34315 -1 11L 1 11ZM 2 10L 5 10L 5 8L 2 8L 2 10ZM 4 9L 4 20L 6 20L 6 9L 4 9Z"/>
</defs>
</svg>
