<svg width="20" height="22" viewBox="0 0 20 22" version="1.1" xmlns="http://www.w3.org/2000/svg" xmlns:xlink="http://www.w3.org/1999/xlink">
<title>trash</title>
<desc>Created using Figma</desc>
<g id="Canvas" transform="translate(-929 1769)">
<g id="trash">
<g id="Page 1">
<g id="feather icon">
<g id="trash">
<g id="Shape">
<use xlink:href="#path0_stroke" transform="translate(930 -1764)" fill="#3A4047"/>
</g>
<g id="Shape">
<use xlink:href="#path1_stroke" transform="translate(932 -1768)" fill="#3A4047"/>
</g>
</g>
</g>
</g>
</g>
</g>
<defs>
<path id="path0_stroke" d="M 0 -1C -0.552285 -1 -1 -0.552285 -1 0C -1 0.552285 -0.552285 1 0 1L 0 -1ZM 18 1C 18.5523 1 19 0.552285 19 0C 19 -0.552285 18.5523 -1 18 -1L 18 1ZM 0 1L 2 1L 2 -1L 0 -1L 0 1ZM 2 1L 18 1L 18 -1L 2 -1L 2 1Z"/>
<path id="path1_stroke" d="M 14 4L 15 4C 15 3.44772 14.5523 3 14 3L 14 4ZM 0 4L 0 3C -0.552285 3 -1 3.44772 -1 4L 0 4ZM 2 4C 2 4.55228 2.44772 5 3 5C 3.55228 5 4 4.55228 4 4L 2 4ZM 10 4C 10 4.55228 10.4477 5 11 5C 11.5523 5 12 4.55228 12 4L 10 4ZM 13 4L 13 18L 15 18L 15 4L 13 4ZM 13 18C 13 18.5523 12.5523 19 12 19L 12 21C 13.6569 21 15 19.6569 15 18L 13 18ZM 12 19L 2 19L 2 21L 12 21L 12 19ZM 2 19C 1.44772 19 1 18.5523 1 18L -1 18C -1 19.6569 0.343146 21 2 21L 2 19ZM 1 18L 1 4L -1 4L -1 18L 1 18ZM 0 5L 14 5L 14 3L 0 3L 0 5ZM 4 4L 4 2L 2 2L 2 4L 4 4ZM 4 2C 4 1.44772 4.44772 1 5 1L 5 -1C 3.34315 -1 2 0.343146 2 2L 4 2ZM 5 1L 9 1L 9 -1L 5 -1L 5 1ZM 9 1C 9.55229 1 10 1.44772 10 2L 12 2C 12 0.343146 10.6569 -1 9 -1L 9 1ZM 10 2L 10 4L 12 4L 12 2L 10 2Z"/>
</defs>
</svg>
