<svg width="20" height="23" viewBox="0 0 20 23" version="1.1" xmlns="http://www.w3.org/2000/svg" xmlns:xlink="http://www.w3.org/1999/xlink">
<title>unlock</title>
<desc>Created using Figma</desc>
<g id="Canvas" transform="translate(-1100 1769)">
<g id="unlock">
<g id="Page 1">
<g id="feather icon">
<g id="unlock">
<g id="Rectangle path">
<use xlink:href="#path0_stroke" transform="translate(1101 -1758.99)" fill="#3A4047"/>
</g>
<g id="Shape">
<use xlink:href="#path1_stroke" transform="translate(1105 -1768)" fill="#3A4047"/>
</g>
</g>
</g>
</g>
</g>
</g>
<defs>
<path id="path0_stroke" d="M 2 1L 16 1L 16 -1L 2 -1L 2 1ZM 16 1C 16.5523 1 17 1.44772 17 2L 19 2C 19 0.343146 17.6569 -1 16 -1L 16 1ZM 17 2L 17 9L 19 9L 19 2L 17 2ZM 17 9C 17 9.55229 16.5523 10 16 10L 16 12C 17.6569 12 19 10.6569 19 9L 17 9ZM 16 10L 2 10L 2 12L 16 12L 16 10ZM 2 10C 1.44772 10 1 9.55229 1 9L -1 9C -1 10.6569 0.343146 12 2 12L 2 10ZM 1 9L 1 2L -1 2L -1 9L 1 9ZM 1 2C 1 1.44772 1.44772 1 2 1L 2 -1C 0.343146 -1 -1 0.343146 -1 2L 1 2Z"/>
<path id="path1_stroke" d="M -0.999997 9.00531C -0.999997 9.5576 -0.552282 10.0053 2.56781e-06 10.0053C 0.552287 10.0053 1 9.5576 1 9.00531L -0.999997 9.00531ZM 2.56781e-06 5.00531L 1 5.00531L 1 5.00431L 2.56781e-06 5.00531ZM 8.92 4.20431C 9.0299 4.74555 9.55776 5.09521 10.099 4.98531C 10.6402 4.87541 10.9899 4.34756 10.88 3.80632L 8.92 4.20431ZM 1 9.00531L 1 5.00531L -0.999997 5.00531L -0.999997 9.00531L 1 9.00531ZM 1 5.00431C 0.997937 2.94929 2.5534 1.22706 4.59801 1.02054L 4.39701 -0.969337C 1.33009 -0.659548 -1.00309 1.9238 -0.999997 5.00632L 1 5.00431ZM 4.59801 1.02054C 6.64261 0.814011 8.51106 2.19039 8.92 4.20431L 10.88 3.80632C 10.2666 0.785445 7.46392 -1.27913 4.39701 -0.969337L 4.59801 1.02054Z"/>
</defs>
</svg>
