<svg width="18" height="20" viewBox="0 0 18 20" version="1.1" xmlns="http://www.w3.org/2000/svg" xmlns:xlink="http://www.w3.org/1999/xlink">
<title>user</title>
<desc>Created using Figma</desc>
<g id="Canvas" transform="translate(-872 1652)">
<g id="user">
<g id="Page 1">
<g id="feather icon">
<g id="user">
<g id="Shape">
<use xlink:href="#path0_stroke" transform="translate(873 -1639)" fill="#3A4047"/>
</g>
<g id="Oval">
<use xlink:href="#path1_stroke" transform="translate(877 -1651)" fill="#3A4047"/>
</g>
</g>
</g>
</g>
</g>
</g>
<defs>
<path id="path0_stroke" d="M 15 6C 15 6.55228 15.4477 7 16 7C 16.5523 7 17 6.55228 17 6L 15 6ZM -1 6C -1 6.55228 -0.552285 7 0 7C 0.552285 7 1 6.55228 1 6L -1 6ZM 17 6L 17 4L 15 4L 15 6L 17 6ZM 17 4C 17 1.23858 14.7614 -1 12 -1L 12 1C 13.6569 1 15 2.34315 15 4L 17 4ZM 12 -1L 4 -1L 4 1L 12 1L 12 -1ZM 4 -1C 1.23858 -1 -1 1.23858 -1 4L 1 4C 1 2.34315 2.34315 1 4 1L 4 -1ZM -1 4L -1 6L 1 6L 1 4L -1 4Z"/>
<path id="path1_stroke" d="M 7 4C 7 5.65685 5.65685 7 4 7L 4 9C 6.76142 9 9 6.76142 9 4L 7 4ZM 4 7C 2.34315 7 1 5.65685 1 4L -1 4C -1 6.76142 1.23858 9 4 9L 4 7ZM 1 4C 1 2.34315 2.34315 1 4 1L 4 -1C 1.23858 -1 -1 1.23858 -1 4L 1 4ZM 4 1C 5.65685 1 7 2.34315 7 4L 9 4C 9 1.23858 6.76142 -1 4 -1L 4 1Z"/>
</defs>
</svg>
