<svg width="22" height="22" viewBox="0 0 22 22" version="1.1" xmlns="http://www.w3.org/2000/svg" xmlns:xlink="http://www.w3.org/1999/xlink">
<title>x-circle</title>
<desc>Created using Figma</desc>
<g id="Canvas" transform="translate(-1181 1827)">
<g id="x-circle">
<g id="Page 1">
<g id="feather icon">
<g id="x circle">
<g id="Oval">
<use xlink:href="#path0_stroke" transform="translate(1182 -1826)" fill="#3A4047"/>
</g>
<g id="Shape">
<use xlink:href="#path1_stroke" transform="translate(1189 -1819)" fill="#3A4047"/>
</g>
<g id="Shape">
<use xlink:href="#path2_stroke" transform="translate(1189 -1819)" fill="#3A4047"/>
</g>
</g>
</g>
</g>
</g>
</g>
<defs>
<path id="path0_stroke" d="M 19 10C 19 14.9706 14.9706 19 10 19L 10 21C 16.0751 21 21 16.0751 21 10L 19 10ZM 10 19C 5.02944 19 1 14.9706 1 10L -1 10C -1 16.0751 3.92487 21 10 21L 10 19ZM 1 10C 1 5.02944 5.02944 1 10 1L 10 -1C 3.92487 -1 -1 3.92487 -1 10L 1 10ZM 10 1C 14.9706 1 19 5.02944 19 10L 21 10C 21 3.92487 16.0751 -1 10 -1L 10 1Z"/>
<path id="path1_stroke" d="M 6.70711 0.707107C 7.09763 0.316583 7.09763 -0.316583 6.70711 -0.707107C 6.31658 -1.09763 5.68342 -1.09763 5.29289 -0.707107L 6.70711 0.707107ZM -0.707107 5.29289C -1.09763 5.68342 -1.09763 6.31658 -0.707107 6.70711C -0.316583 7.09763 0.316583 7.09763 0.707107 6.70711L -0.707107 5.29289ZM 5.29289 -0.707107L -0.707107 5.29289L 0.707107 6.70711L 6.70711 0.707107L 5.29289 -0.707107Z"/>
<path id="path2_stroke" d="M 0.707107 -0.707107C 0.316583 -1.09763 -0.316583 -1.09763 -0.707107 -0.707107C -1.09763 -0.316583 -1.09763 0.316583 -0.707107 0.707107L 0.707107 -0.707107ZM 5.29289 6.70711C 5.68342 7.09763 6.31658 7.09763 6.70711 6.70711C 7.09763 6.31658 7.09763 5.68342 6.70711 5.29289L 5.29289 6.70711ZM -0.707107 0.707107L 5.29289 6.70711L 6.70711 5.29289L 0.707107 -0.707107L -0.707107 0.707107Z"/>
</defs>
</svg>
