<svg width="20" height="20" viewBox="0 0 20 20" version="1.1" xmlns="http://www.w3.org/2000/svg" xmlns:xlink="http://www.w3.org/1999/xlink">
<title>zoom-in</title>
<desc>Created using Figma</desc>
<g id="Canvas" transform="translate(-921 1826)">
<g id="zoom-in">
<g id="Page 1">
<g id="feather icon">
<g id="zoom in">
<g id="Oval">
<use xlink:href="#path0_stroke" transform="translate(922 -1825)" fill="#3A4047"/>
</g>
<g id="Shape">
<use xlink:href="#path1_stroke" transform="translate(935.65 -1811.35)" fill="#3A4047"/>
</g>
<g id="Shape">
<use xlink:href="#path2_stroke" transform="translate(930 -1820)" fill="#3A4047"/>
</g>
<g id="Shape">
<use xlink:href="#path3_stroke" transform="translate(927 -1817)" fill="#3A4047"/>
</g>
</g>
</g>
</g>
</g>
</g>
<defs>
<path id="path0_stroke" d="M 15 8C 15 11.866 11.866 15 8 15L 8 17C 12.9706 17 17 12.9706 17 8L 15 8ZM 8 15C 4.13401 15 1 11.866 1 8L -1 8C -1 12.9706 3.02944 17 8 17L 8 15ZM 1 8C 1 4.13401 4.13401 1 8 1L 8 -1C 3.02944 -1 -1 3.02944 -1 8L 1 8ZM 8 1C 11.866 1 15 4.13401 15 8L 17 8C 17 3.02944 12.9706 -1 8 -1L 8 1Z"/>
<path id="path1_stroke" d="M 3.64289 5.05711C 4.03342 5.44763 4.66658 5.44763 5.05711 5.05711C 5.44763 4.66658 5.44763 4.03342 5.05711 3.64289L 3.64289 5.05711ZM 0.707106 -0.707107C 0.316582 -1.09763 -0.316583 -1.09763 -0.707107 -0.707107C -1.09763 -0.316583 -1.09763 0.316582 -0.707107 0.707106L 0.707106 -0.707107ZM 5.05711 3.64289L 0.707106 -0.707107L -0.707107 0.707106L 3.64289 5.05711L 5.05711 3.64289Z"/>
<path id="path2_stroke" d="M 1 0C 1 -0.552285 0.552285 -1 0 -1C -0.552285 -1 -1 -0.552285 -1 0L 1 0ZM -1 6C -1 6.55228 -0.552285 7 0 7C 0.552285 7 1 6.55228 1 6L -1 6ZM -1 0L -1 6L 1 6L 1 0L -1 0Z"/>
<path id="path3_stroke" d="M 0 -1C -0.552285 -1 -1 -0.552285 -1 0C -1 0.552285 -0.552285 1 0 1L 0 -1ZM 6 1C 6.55228 1 7 0.552285 7 0C 7 -0.552285 6.55228 -1 6 -1L 6 1ZM 0 1L 6 1L 6 -1L 0 -1L 0 1Z"/>
</defs>
</svg>
