<svg width="18" height="18" viewBox="0 0 18 18" version="1.1" xmlns="http://www.w3.org/2000/svg" xmlns:xlink="http://www.w3.org/1999/xlink">
<title>Checkbox active</title>
<desc>Created using Figma</desc>
<g id="Canvas" transform="translate(-243 1905)">
<g id="Checkbox active">
<g id="Rectangle 17">
<use xlink:href="#path0_fill" transform="translate(243 -1905)" fill="#FFFFFF"/>
<mask id="mask0_outline_ins">
<use xlink:href="#path0_fill" fill="white" transform="translate(243 -1905)"/>
</mask>
<g mask="url(#mask0_outline_ins)">
<use xlink:href="#path1_stroke_2x" transform="translate(243 -1905)" fill="#1AB0CE"/>
</g>
</g>
<g id="Vector 2 (Stroke)">
<use xlink:href="#path2_fill" transform="translate(246.293 -1899.71)" fill="#1AB0CE"/>
</g>
</g>
</g>
<defs>
<path id="path0_fill" d="M 0 0L 18 0L 18 18L 0 18L 0 0Z"/>
<path id="path1_stroke_2x" d="M 0 0L 0 -1L -1 -1L -1 0L 0 0ZM 18 0L 19 0L 19 -1L 18 -1L 18 0ZM 18 18L 18 19L 19 19L 19 18L 18 18ZM 0 18L -1 18L -1 19L 0 19L 0 18ZM 0 1L 18 1L 18 -1L 0 -1L 0 1ZM 17 0L 17 18L 19 18L 19 0L 17 0ZM 18 17L 0 17L 0 19L 18 19L 18 17ZM 1 18L 1 0L -1 0L -1 18L 1 18Z"/>
<path id="path2_fill" fill-rule="evenodd" d="M 11.4142 1.41421L 4.91421 7.91421L 4.20711 8.62132L 3.5 7.91421L 0 4.41421L 1.41421 3L 4.20711 5.79289L 10 0L 11.4142 1.41421Z"/>
</defs>
</svg>
