<svg width="18" height="18" viewBox="0 0 18 18" version="1.1" xmlns="http://www.w3.org/2000/svg" xmlns:xlink="http://www.w3.org/1999/xlink">
<title>Radio button active</title>
<desc>Created using Figma</desc>
<g id="Canvas" transform="translate(-300 1905)">
<g id="Radio button active">
<g id="Rectangle 17">
<use xlink:href="#path0_fill" transform="translate(300 -1905)" fill="#FFFFFF"/>
<mask id="mask0_outline_ins">
<use xlink:href="#path0_fill" fill="white" transform="translate(300 -1905)"/>
</mask>
<g mask="url(#mask0_outline_ins)">
<use xlink:href="#path1_stroke_2x" transform="translate(300 -1905)" fill="#1AB0CE"/>
</g>
</g>
<g id="Ellipse 2">
<use xlink:href="#path2_fill" transform="translate(304 -1901)" fill="#1AB0CE"/>
</g>
</g>
</g>
<defs>
<path id="path0_fill" d="M 0 9C 0 4.02944 4.02944 0 9 0C 13.9706 0 18 4.02944 18 9C 18 13.9706 13.9706 18 9 18C 4.02944 18 0 13.9706 0 9Z"/>
<path id="path1_stroke_2x" d="M 9 17C 4.58172 17 1 13.4183 1 9L -1 9C -1 14.5228 3.47715 19 9 19L 9 17ZM 17 9C 17 13.4183 13.4183 17 9 17L 9 19C 14.5228 19 19 14.5228 19 9L 17 9ZM 9 1C 13.4183 1 17 4.58172 17 9L 19 9C 19 3.47715 14.5228 -1 9 -1L 9 1ZM 9 -1C 3.47715 -1 -1 3.47715 -1 9L 1 9C 1 4.58172 4.58172 1 9 1L 9 -1Z"/>
<path id="path2_fill" d="M 10 5C 10 7.76142 7.76142 10 5 10C 2.23858 10 0 7.76142 0 5C 0 2.23858 2.23858 0 5 0C 7.76142 0 10 2.23858 10 5Z"/>
</defs>
</svg>
